{"title":"Enkelstöten S01 E01 - 720p x264 - SWE (HARD ENG SUBS) [BRSHNKV]","magnet":"magnet:?xt=urn:btih:659584cc8b3f8cbfed0a44d1a90f31be01f5ebfe&dn=Enkelsto%CC%88ten+S01+E01+-+720p+x264+-+SWE+%28HARD+ENG+SUBS%29+%5BBRSHNKV%5D&tr=udp%3A%2F%2Ftracker.leechers-paradise.org%3A6969&tr=udp%3A%2F%2Fzer0day.ch%3A1337&tr=udp%3A%2F%2Fopen.demonii.com%3A1337&tr=udp%3A%2F%2Ftracker.coppersurfer.tk%3A6969&tr=udp%3A%2F%2Fexodus.desync.com%3A6969","uploader":"BRSHNKV","categoryP":"video","categoryS":"hd___tv_shows","size":"518830637","seeders":"0","leechers":"0","description":"Jenny and Cecilia are two women in their 60s who live a regular middle class life in Kalmar. But when both realize that the future is anything but light for them, they decide to do something drastic, robbing a bank office in Stockholm.\r\n\r\n\r\nTech:\r\n\r\nVideo\r\nID                                       : 1\r\nFormat                                   : AVC\r\nFormat/Info                              : Advanced Video Codec\r\nFormat profile                           : <a href=\"/cdn-cgi/l/email-protection\" class=\"__cf_email__\" data-cfemail=\"99d4f8f0f7d9d5ad\">[email&#xA0;protected]</a>\r\nFormat settings, CABAC                   : Yes\r\nFormat settings, ReFrames                : 4 frames\r\nCodec ID                                 : avc1\r\nCodec ID/Info                            : Advanced Video Coding\r\nDuration                                 : 44mn 12s\r\nBit rate                                 : 1 400 Kbps\r\nWidth                                    : 1 280 pixels\r\nHeight                                   : 720 pixels\r\nDisplay aspect ratio                     : 16:9\r\nFrame rate mode                          : Constant\r\nFrame rate                               : 25.000 fps\r\nColor space                              : YUV\r\nChroma subsampling                       : 4:2:0\r\nBit depth                                : 8 bits\r\nScan type                                : Progressive\r\nBits/(Pixel*Frame)                       : 0.061\r\nStream size                              : 443 MiB (89%)\r\nWriting library                          : x264 core 148 r2708 86b7198\r\nEncoded date                             : UTC 2018-03-13 21:16:33\r\nTagged date                              : UTC 2018-03-13 21:16:33\r\nColor range                              : Limited\r\nColor primaries                          : BT.709\r\nTransfer characteristics                 : BT.709\r\nMatrix coefficients                      : BT.709\r\n\r\nAudio\r\nID                                       : 2\r\nFormat                                   : AAC\r\nFormat/Info                              : Advanced Audio Codec\r\nFormat profile                           : LC\r\nCodec ID                                 : 40\r\nDuration                                 : 44mn 12s\r\nBit rate mode                            : Variable\r\nBit rate                                 : 159 Kbps\r\nChannel(s)                               : 2 channels\r\nChannel positions                        : Front: L R\r\nSampling rate                            : 48.0 KHz\r\nCompression mode                         : Lossy\r\nStream size                              : 50.2 MiB (10%)\r\nTitle                                    : Stereo / Stereo\r\nLanguage                                 : Swedish","last_updated":"2018-03-14T12:01:34.245Z","parsed":{"xt":"urn:btih:659584cc8b3f8cbfed0a44d1a90f31be01f5ebfe","dn":"Enkelstöten S01 E01 - 720p x264 - SWE (HARD ENG SUBS) [BRSHNKV]","tr":["udp://exodus.desync.com:6969","udp://open.demonii.com:1337","udp://tracker.coppersurfer.tk:6969","udp://tracker.leechers-paradise.org:6969","udp://zer0day.ch:1337"],"infoHash":"659584cc8b3f8cbfed0a44d1a90f31be01f5ebfe","infoHashBuffer":{"type":"Buffer","data":[101,149,132,204,139,63,140,191,237,10,68,209,169,15,49,190,1,245,235,254]},"name":"Enkelstöten S01 E01 - 720p x264 - SWE (HARD ENG SUBS) [BRSHNKV]","announce":["udp://exodus.desync.com:6969","udp://open.demonii.com:1337","udp://tracker.coppersurfer.tk:6969","udp://tracker.leechers-paradise.org:6969","udp://zer0day.ch:1337"],"urlList":[]}}